<mxfile host="app.diagrams.net" agent="Mozilla/5.0 (Windows NT 10.0; Win64; x64; rv:143.0) Gecko/20100101 Firefox/143.0" version="28.2.5">
  <diagram name="Страница — 1" id="IB0LTJJu5A-tRw9VyMWV">
    <mxGraphModel dx="813" dy="695" grid="1" gridSize="10" guides="1" tooltips="1" connect="1" arrows="1" fold="1" page="1" pageScale="1" pageWidth="827" pageHeight="1169" math="0" shadow="0">
      <root>
        <mxCell id="0" />
        <mxCell id="1" parent="0" />
        <mxCell id="_JLij78zeixKJYq6KvC4-1" value="" style="rounded=1;whiteSpace=wrap;html=1;" vertex="1" parent="1">
          <mxGeometry x="40" width="160" height="160" as="geometry" />
        </mxCell>
        <mxCell id="_JLij78zeixKJYq6KvC4-2" value="BLIP-2" style="rounded=0;whiteSpace=wrap;html=1;" vertex="1" parent="1">
          <mxGeometry x="60" y="110" width="120" height="40" as="geometry" />
        </mxCell>
        <mxCell id="_JLij78zeixKJYq6KvC4-3" value="BLIP-2" style="rounded=0;whiteSpace=wrap;html=1;" vertex="1" parent="1">
          <mxGeometry x="60" y="70" width="120" height="40" as="geometry" />
        </mxCell>
        <mxCell id="_JLij78zeixKJYq6KvC4-4" value="&lt;font style=&quot;font-size: 18px;&quot;&gt;...&lt;/font&gt;" style="rounded=0;whiteSpace=wrap;html=1;" vertex="1" parent="1">
          <mxGeometry x="60" y="30" width="120" height="40" as="geometry" />
        </mxCell>
        <mxCell id="_JLij78zeixKJYq6KvC4-5" value="BLIP-2 container" style="text;html=1;align=center;verticalAlign=middle;whiteSpace=wrap;rounded=0;" vertex="1" parent="1">
          <mxGeometry x="60" width="120" height="30" as="geometry" />
        </mxCell>
        <mxCell id="_JLij78zeixKJYq6KvC4-6" value="" style="rounded=1;whiteSpace=wrap;html=1;" vertex="1" parent="1">
          <mxGeometry x="240" width="160" height="160" as="geometry" />
        </mxCell>
        <mxCell id="_JLij78zeixKJYq6KvC4-7" value="LLaVA" style="rounded=0;whiteSpace=wrap;html=1;" vertex="1" parent="1">
          <mxGeometry x="260" y="110" width="120" height="40" as="geometry" />
        </mxCell>
        <mxCell id="_JLij78zeixKJYq6KvC4-8" value="LLaVA" style="rounded=0;whiteSpace=wrap;html=1;" vertex="1" parent="1">
          <mxGeometry x="260" y="70" width="120" height="40" as="geometry" />
        </mxCell>
        <mxCell id="_JLij78zeixKJYq6KvC4-9" value="&lt;font style=&quot;font-size: 18px;&quot;&gt;...&lt;/font&gt;" style="rounded=0;whiteSpace=wrap;html=1;" vertex="1" parent="1">
          <mxGeometry x="260" y="30" width="120" height="40" as="geometry" />
        </mxCell>
        <mxCell id="_JLij78zeixKJYq6KvC4-10" value="LLaVA container" style="text;html=1;align=center;verticalAlign=middle;whiteSpace=wrap;rounded=0;" vertex="1" parent="1">
          <mxGeometry x="260" width="120" height="30" as="geometry" />
        </mxCell>
        <mxCell id="_JLij78zeixKJYq6KvC4-11" value="" style="rounded=1;whiteSpace=wrap;html=1;" vertex="1" parent="1">
          <mxGeometry x="440" width="160" height="160" as="geometry" />
        </mxCell>
        <mxCell id="_JLij78zeixKJYq6KvC4-12" value="MiniGPT-4" style="rounded=0;whiteSpace=wrap;html=1;" vertex="1" parent="1">
          <mxGeometry x="460" y="110" width="120" height="40" as="geometry" />
        </mxCell>
        <mxCell id="_JLij78zeixKJYq6KvC4-13" value="MiniGPT-4" style="rounded=0;whiteSpace=wrap;html=1;" vertex="1" parent="1">
          <mxGeometry x="460" y="70" width="120" height="40" as="geometry" />
        </mxCell>
        <mxCell id="_JLij78zeixKJYq6KvC4-14" value="&lt;font style=&quot;font-size: 18px;&quot;&gt;...&lt;/font&gt;" style="rounded=0;whiteSpace=wrap;html=1;" vertex="1" parent="1">
          <mxGeometry x="460" y="30" width="120" height="40" as="geometry" />
        </mxCell>
        <mxCell id="_JLij78zeixKJYq6KvC4-15" value="MiniGPT-4 container" style="text;html=1;align=center;verticalAlign=middle;whiteSpace=wrap;rounded=0;" vertex="1" parent="1">
          <mxGeometry x="460" width="120" height="30" as="geometry" />
        </mxCell>
        <mxCell id="_JLij78zeixKJYq6KvC4-42" value="" style="rounded=1;whiteSpace=wrap;html=1;" vertex="1" parent="1">
          <mxGeometry x="40" y="250" width="600" height="480" as="geometry" />
        </mxCell>
        <mxCell id="_JLij78zeixKJYq6KvC4-43" style="edgeStyle=orthogonalEdgeStyle;rounded=0;orthogonalLoop=1;jettySize=auto;html=1;exitX=1;exitY=0.25;exitDx=0;exitDy=0;entryX=0.5;entryY=1;entryDx=0;entryDy=0;" edge="1" parent="1" source="_JLij78zeixKJYq6KvC4-45" target="_JLij78zeixKJYq6KvC4-58">
          <mxGeometry relative="1" as="geometry">
            <Array as="points">
              <mxPoint x="300" y="380" />
            </Array>
          </mxGeometry>
        </mxCell>
        <mxCell id="_JLij78zeixKJYq6KvC4-62" style="edgeStyle=orthogonalEdgeStyle;rounded=0;orthogonalLoop=1;jettySize=auto;html=1;exitX=1;exitY=0.75;exitDx=0;exitDy=0;entryX=0.5;entryY=1;entryDx=0;entryDy=0;" edge="1" parent="1" source="_JLij78zeixKJYq6KvC4-45" target="_JLij78zeixKJYq6KvC4-60">
          <mxGeometry relative="1" as="geometry">
            <Array as="points">
              <mxPoint x="300" y="600" />
            </Array>
          </mxGeometry>
        </mxCell>
        <mxCell id="_JLij78zeixKJYq6KvC4-45" value="" style="rounded=1;whiteSpace=wrap;html=1;" vertex="1" parent="1">
          <mxGeometry x="100" y="300" width="200" height="380" as="geometry" />
        </mxCell>
        <mxCell id="_JLij78zeixKJYq6KvC4-46" value="" style="rounded=1;whiteSpace=wrap;html=1;" vertex="1" parent="1">
          <mxGeometry x="420" y="300" width="160" height="160" as="geometry" />
        </mxCell>
        <mxCell id="_JLij78zeixKJYq6KvC4-47" value="High Performance" style="rounded=0;whiteSpace=wrap;html=1;" vertex="1" parent="1">
          <mxGeometry x="440" y="410" width="120" height="40" as="geometry" />
        </mxCell>
        <mxCell id="_JLij78zeixKJYq6KvC4-48" value="Balanced" style="rounded=0;whiteSpace=wrap;html=1;" vertex="1" parent="1">
          <mxGeometry x="440" y="370" width="120" height="40" as="geometry" />
        </mxCell>
        <mxCell id="_JLij78zeixKJYq6KvC4-49" value="High Quality" style="rounded=0;whiteSpace=wrap;html=1;" vertex="1" parent="1">
          <mxGeometry x="440" y="330" width="120" height="40" as="geometry" />
        </mxCell>
        <mxCell id="_JLij78zeixKJYq6KvC4-50" value="TensorRT (GPU)" style="text;html=1;align=center;verticalAlign=middle;whiteSpace=wrap;rounded=0;" vertex="1" parent="1">
          <mxGeometry x="440" y="300" width="120" height="30" as="geometry" />
        </mxCell>
        <mxCell id="_JLij78zeixKJYq6KvC4-51" value="// Or other impl based on benchmark results" style="text;html=1;align=center;verticalAlign=middle;whiteSpace=wrap;rounded=0;" vertex="1" parent="1">
          <mxGeometry x="420" y="266" width="160" height="30" as="geometry" />
        </mxCell>
        <mxCell id="_JLij78zeixKJYq6KvC4-52" value="" style="rounded=1;whiteSpace=wrap;html=1;" vertex="1" parent="1">
          <mxGeometry x="420" y="520" width="160" height="160" as="geometry" />
        </mxCell>
        <mxCell id="_JLij78zeixKJYq6KvC4-53" value="High Performance" style="rounded=0;whiteSpace=wrap;html=1;" vertex="1" parent="1">
          <mxGeometry x="440" y="630" width="120" height="40" as="geometry" />
        </mxCell>
        <mxCell id="_JLij78zeixKJYq6KvC4-54" value="Balanced" style="rounded=0;whiteSpace=wrap;html=1;" vertex="1" parent="1">
          <mxGeometry x="440" y="590" width="120" height="40" as="geometry" />
        </mxCell>
        <mxCell id="_JLij78zeixKJYq6KvC4-55" value="High Quality" style="rounded=0;whiteSpace=wrap;html=1;" vertex="1" parent="1">
          <mxGeometry x="440" y="550" width="120" height="40" as="geometry" />
        </mxCell>
        <mxCell id="_JLij78zeixKJYq6KvC4-56" value="ONNX (CPU)" style="text;html=1;align=center;verticalAlign=middle;whiteSpace=wrap;rounded=0;" vertex="1" parent="1">
          <mxGeometry x="440" y="520" width="120" height="30" as="geometry" />
        </mxCell>
        <mxCell id="_JLij78zeixKJYq6KvC4-57" style="edgeStyle=orthogonalEdgeStyle;rounded=0;orthogonalLoop=1;jettySize=auto;html=1;exitX=0.5;exitY=0;exitDx=0;exitDy=0;entryX=0;entryY=0.5;entryDx=0;entryDy=0;" edge="1" parent="1" source="_JLij78zeixKJYq6KvC4-58" target="_JLij78zeixKJYq6KvC4-46">
          <mxGeometry relative="1" as="geometry" />
        </mxCell>
        <mxCell id="_JLij78zeixKJYq6KvC4-58" value="batched" style="rounded=0;whiteSpace=wrap;html=1;rotation=90;" vertex="1" parent="1">
          <mxGeometry x="300" y="350" width="120" height="60" as="geometry" />
        </mxCell>
        <mxCell id="_JLij78zeixKJYq6KvC4-59" style="edgeStyle=orthogonalEdgeStyle;rounded=0;orthogonalLoop=1;jettySize=auto;html=1;exitX=0.5;exitY=0;exitDx=0;exitDy=0;entryX=0;entryY=0.5;entryDx=0;entryDy=0;" edge="1" parent="1" source="_JLij78zeixKJYq6KvC4-60" target="_JLij78zeixKJYq6KvC4-52">
          <mxGeometry relative="1" as="geometry" />
        </mxCell>
        <mxCell id="_JLij78zeixKJYq6KvC4-60" value="batched" style="rounded=0;whiteSpace=wrap;html=1;rotation=90;" vertex="1" parent="1">
          <mxGeometry x="300" y="570" width="120" height="60" as="geometry" />
        </mxCell>
        <mxCell id="_JLij78zeixKJYq6KvC4-61" value="// As fallback on GPU overload" style="text;html=1;align=center;verticalAlign=middle;whiteSpace=wrap;rounded=0;" vertex="1" parent="1">
          <mxGeometry x="420" y="486" width="160" height="30" as="geometry" />
        </mxCell>
      </root>
    </mxGraphModel>
  </diagram>
</mxfile>
